<?xml version="1.0" standalone="no"?>
<!DOCTYPE svg PUBLIC "-//W3C//DTD SVG 20010904//EN"
 "http://www.w3.org/TR/2001/REC-SVG-20010904/DTD/svg10.dtd">
<svg version="1.0" xmlns="http://www.w3.org/2000/svg"
 width="478.000000pt" height="472.000000pt" viewBox="0 0 478.000000 472.000000"
 preserveAspectRatio="xMidYMid meet">

<g transform="translate(0.000000,472.000000) scale(0.100000,-0.100000)"
fill="#000000" stroke="none">
<path d="M0 2360 l0 -2360 2390 0 2390 0 0 2360 0 2360 -2390 0 -2390 0 0
-2360z m2268 1043 l2 -942 -30 -21 c-17 -12 -61 -39 -98 -60 -55 -30 -186
-106 -489 -281 -18 -11 -48 -27 -65 -38 -324 -187 -861 -497 -916 -528 -23
-13 -46 -22 -50 -19 -5 3 -18 24 -29 48 -109 225 -182 552 -183 816 -1 347
131 804 301 1044 11 14 19 29 19 33 0 15 125 174 135 171 13 -4 19 -667 6
-721 -5 -22 -21 -83 -35 -135 -42 -164 -48 -222 -43 -420 7 -213 14 -279 32
-286 7 -3 28 4 46 14 19 11 98 56 177 102 l142 82 0 843 0 843 45 36 c85 70
305 193 324 181 8 -4 11 -265 11 -841 0 -833 0 -835 20 -829 11 4 50 25 87 47
71 43 117 70 175 101 l38 21 2 815 3 815 30 8 c78 23 240 46 300 44 l40 -1 3
-942z m462 926 c72 -14 139 -29 170 -39 14 -4 45 -13 70 -20 162 -45 351 -135
525 -252 118 -80 171 -124 281 -233 116 -115 176 -187 253 -303 62 -92 166
-285 190 -352 7 -19 17 -44 21 -55 32 -75 67 -208 99 -375 40 -204 31 -511
-20 -740 -34 -149 -112 -373 -150 -430 l-16 -24 -139 78 c-76 44 -147 85 -156
93 -18 16 -16 30 20 113 19 43 63 183 73 230 39 190 51 437 29 566 -26 146
-56 269 -80 329 -4 11 -14 36 -21 55 -15 42 -77 171 -107 223 -47 81 -160 236
-173 237 -15 1 -18 -120 -18 -829 -1 -410 -3 -747 -6 -750 -6 -5 -63 22 -130
62 -22 14 -83 49 -135 80 l-95 55 -3 852 c-2 798 -3 854 -20 866 -41 32 -265
133 -294 134 -5 0 -8 -366 -8 -812 0 -458 -4 -819 -9 -827 -7 -11 -38 2 -153
68 -203 115 -202 115 -210 126 -4 6 -8 435 -8 954 l0 944 83 -7 c45 -4 107
-11 137 -17z m-308 -2108 c18 -10 53 -30 78 -44 25 -15 91 -53 147 -84 57 -32
101 -62 99 -68 -1 -5 -56 -41 -122 -79 -65 -38 -134 -77 -151 -87 -18 -11 -49
-28 -68 -39 -74 -42 -102 -58 -160 -92 -33 -20 -80 -47 -105 -60 -25 -14 -85
-49 -135 -78 -166 -98 -399 -232 -455 -263 -30 -16 -59 -33 -65 -37 -12 -9
-80 -48 -117 -67 -15 -8 -31 -19 -34 -25 -7 -11 39 -59 96 -98 19 -13 37 -27
40 -31 7 -8 132 -84 154 -92 10 -4 34 2 59 17 108 61 293 169 302 175 6 5 35
22 65 38 30 17 71 39 90 50 67 39 285 166 315 183 118 69 360 208 405 233 30
16 60 33 65 37 6 4 27 17 48 29 75 43 105 59 123 71 20 13 36 5 334 -170 63
-37 135 -79 160 -92 25 -14 86 -49 135 -78 50 -29 104 -60 120 -70 17 -9 50
-29 75 -44 25 -14 60 -34 78 -43 17 -9 32 -21 32 -26 0 -17 -137 -190 -212
-267 -115 -119 -301 -272 -378 -312 -14 -7 -52 -29 -85 -48 -173 -103 -404
-184 -653 -229 -131 -25 -562 -26 -562 -2 0 4 55 39 123 77 67 39 229 132 359
207 131 76 259 144 285 153 153 50 393 186 508 287 49 44 64 31 -195 178 -16
8 -40 23 -54 32 -28 18 -76 22 -92 8 -7 -8 -149 -91 -294 -173 -19 -11 -39
-24 -45 -28 -5 -4 -35 -21 -65 -37 -30 -17 -95 -54 -145 -83 -91 -53 -126 -74
-190 -110 -19 -11 -51 -29 -70 -40 -19 -11 -50 -28 -67 -39 -18 -10 -105 -60
-193 -111 -88 -51 -175 -101 -192 -111 -169 -98 -154 -92 -205 -72 -41 16
-124 58 -217 110 -122 68 -273 185 -396 308 -105 105 -245 278 -245 302 0 5
55 40 121 79 67 38 140 80 163 93 39 22 55 32 141 81 64 36 99 57 190 110 50
29 115 66 145 83 30 16 67 38 82 49 14 10 29 18 32 18 4 0 39 20 79 44 61 37
134 79 305 177 43 25 72 42 237 138 77 44 141 81 142 81 1 0 17 -8 35 -19z"/>
</g>
</svg>
